<svg width="81" height="73" viewBox="0 0 81 73" fill="none" xmlns="http://www.w3.org/2000/svg">
<g clip-path="url(#clip0_26_271)">
<path fill-rule="evenodd" clip-rule="evenodd" d="M61.2908 8.19806C56.5425 3.19833 49.2696 0 41.1169 0C28.495 0 17.9815 7.66624 15.6811 17.8147C6.45829 21.182 0 28.967 0 38.033C0 47.4368 6.94858 55.4624 16.7234 58.6091C20.3079 67.1078 29.8763 73.1879 41.1169 73.1879C48.5979 73.1879 55.3381 70.4949 60.0667 66.1881C71.6863 65.8361 80.9997 56.1267 80.9997 44.2006C80.9997 39.9985 79.8435 36.0715 77.8375 32.7322C81.3 26.6003 81.8727 20.0067 78.7104 14.986C75.3934 9.71964 68.7404 7.41218 61.2908 8.19806Z" fill="#CD4930"/>
<path fill-rule="evenodd" clip-rule="evenodd" d="M58.7972 25.8189C58.7972 29.6793 56.8643 32.8088 54.48 32.8088C52.0956 32.8088 50.1627 29.6793 50.1627 25.8189C50.1627 21.9586 52.0956 18.8291 54.48 18.8291C56.8643 18.8291 58.7972 21.9586 58.7972 25.8189ZM37.8274 26.6412C37.8274 30.5016 35.8945 33.6311 33.5101 33.6311C31.1258 33.6311 29.1929 30.5016 29.1929 26.6412C29.1929 22.7809 31.1258 19.6514 33.5101 19.6514C35.8945 19.6514 37.8274 22.7809 37.8274 26.6412ZM36.6866 37.4046C35.3603 40.0834 38.319 52.5139 44.1433 52.5979C49.9675 52.6819 53.3012 40.0467 52.4877 37.3934C51.6742 34.7401 38.0128 34.7257 36.6866 37.4046Z" fill="#FFCBC1"/>
</g>
<defs>
<clipPath id="clip0_26_271">
<rect width="81" height="73" fill="white"/>
</clipPath>
</defs>
</svg>
