<svg width="81" height="73" viewBox="0 0 81 73" fill="none" xmlns="http://www.w3.org/2000/svg">
<g clip-path="url(#clip0_26_254)">
<path fill-rule="evenodd" clip-rule="evenodd" d="M61.2908 8.19806C56.5425 3.19833 49.2696 0 41.1169 0C28.495 0 17.9815 7.66624 15.6811 17.8147C6.45829 21.182 0 28.967 0 38.033C0 47.4368 6.94858 55.4624 16.7234 58.6091C20.3079 67.1078 29.8763 73.1879 41.1169 73.1879C48.5979 73.1879 55.3381 70.4949 60.0667 66.1881C71.6863 65.8361 80.9997 56.1267 80.9997 44.2006C80.9997 39.9985 79.8435 36.0715 77.8375 32.7322C81.3 26.6003 81.8727 20.0067 78.7104 14.986C75.3934 9.71964 68.7404 7.41218 61.2908 8.19806Z" fill="white"/>
<path fill-rule="evenodd" clip-rule="evenodd" d="M58.7972 25.8189C58.7972 29.6793 56.8643 32.8088 54.48 32.8088C52.0956 32.8088 50.1627 29.6793 50.1627 25.8189C50.1627 21.9586 52.0956 18.8291 54.48 18.8291C56.8643 18.8291 58.7972 21.9586 58.7972 25.8189ZM37.8274 26.6412C37.8274 30.5016 35.8945 33.6311 33.5101 33.6311C31.1258 33.6311 29.1929 30.5016 29.1929 26.6412C29.1929 22.7809 31.1258 19.6514 33.5101 19.6514C35.8945 19.6514 37.8274 22.7809 37.8274 26.6412ZM49.108 37.4123C47.4602 37.8024 45.2191 38.333 42.7251 38.3467C40.0109 38.3616 38.2271 37.8182 37.1836 37.5004C35.9875 37.1361 35.7639 37.068 36.2265 38.476C37.0927 41.1126 50.4507 40.8722 51.7234 38.1674C52.4512 36.6207 51.3089 36.8912 49.108 37.4123Z" fill="#FFCBC1"/>
</g>
<defs>
<clipPath id="clip0_26_254">
<rect width="81" height="73" fill="white"/>
</clipPath>
</defs>
</svg>
